<svg width="512" height="512" viewBox="0 0 512 512" fill="none" xmlns="http://www.w3.org/2000/svg">
  <rect width="512" height="512" rx="120" fill="#0b0b0b"/>
  <circle cx="256" cy="256" r="168" fill="#d4af37"/>
  <path
    d="M308 181.5C296 168.5 277.5 160 253 160C222.5 160 201.5 174 201.5 198.5C201.5 223.5 223.5 234 250.5 240.5L270.5 245.5C298 252.5 316.5 264.5 316.5 291.5C316.5 326.5 283 352 244.5 352C216.5 352 193 343 176.5 325L195 304.5C208.5 318.5 225.5 326 245.5 326C271 326 291.5 313 291.5 293.5C291.5 276.5 277.5 268 252 262L232.5 257.5C206.5 251.5 176 239 176 203.5C176 170 210 134 253.5 134C285 134 311.5 146 329 164L308 181.5Z"
    fill="#0b0b0b"
  />
</svg>
